<?xml version="1.0" encoding="UTF-8"?><svg id="Layer_1" xmlns="http://www.w3.org/2000/svg" viewBox="0 0 643.4 810.93"><defs><style>.cls-1{fill:#34573c;}.cls-2{fill:#2d5337;}.cls-3{fill:#2f5438;}.cls-4{fill:#fefefd;}.cls-5{fill:#81c149;}.cls-6{fill:#6ea946;}.cls-7{fill:#fdfefd;}.cls-8{fill:#fefffe;}.cls-9{fill:#7fbe48;}.cls-10{fill:#fcfcfb;}.cls-11{fill:#81c347;}.cls-12{fill:#fdfdfc;}.cls-13{fill:#fffffe;}.cls-14{fill:#fff;}.cls-15{fill:#33573b;}.cls-16{fill:#8fb273;}.cls-17{fill:#fefefe;}.cls-18{fill:#87b166;}.cls-19{fill:#2e5337;}.cls-20{fill:#82bb53;}.cls-21{fill:#fbfcfb;}.cls-22{fill:#fcfdfb;}.cls-23{fill:#fdfefc;}</style></defs><path class="cls-11" d="M68.39,412c0-24.83-.06-49.17.01-73.5.31-109.27.65-218.54,1.04-327.8.01-3.4.77-6.81,1.25-10.7h4.98C253.17,0,430.67-.03,608.16.11c8.85,0,17.67,1.39,24.4,8.49,5.29,5.58,7.43,12.47,7.71,19.69.7,17.75,1.03,35.53,1.08,53.3.13,52.5-.06,105,.07,157.5.26,108.77.6,217.54,1,326.3.23,60.94.65,121.87.98,182.81.01,2,0,3.99,0,6.81h-6.38c-132.83,0-265.66-.15-398.49.27-10.9.03-21.89,3.5-32.67,6.07-33.79,8.04-67.5,16.45-101.26,24.65-25.2,6.12-50.44,12.11-75.64,18.22-8.86,2.15-17.68,4.48-26.53,6.69-.55.14-1.21-.14-2.42-.32,9.27-14.92,18.32-29.46,27.33-44.02,12.73-20.58,25.46-41.15,38.05-61.82,1.21-1.99,1.92-4.61,1.94-6.94.43-75.1.77-150.2,1.07-225.31.08-20,.01-40,.01-60.5M494.26,117.48c-.37-.17-.73-.35-1.73-.72-3.77-1.94-7.38-5.01-11.35-5.58-7.82-1.13-15.83-.95-23.77-1.16-11.25-.29-19.53,4.22-24.41,14.86-1.14-.68-2.26-1.39-3.43-2.02-7.4-4.01-14.8-8-22.84-12.54h-21.66c0,4.14,0,7.94-.62,11.49-7.33-3.89-14.67-7.79-22.94-11.79h-21.3c0,7.36,0,14.24-.69,20.99-4.35-2.4-8.64-4.89-13.05-7.16-4.66-2.39-9.43-4.56-14.08-6.85,0,0,.02.07-.17-.46-.32-.19-.65-.38-1.62-.76-4.95-4.16-10.79-5.75-17.13-5.78-7.33-.03-14.67-.04-22,0-15.38.07-22.85,6.47-25.45,21.72-.2,1.15-.47,2.28-1.4,3.28-15.7-8.31-31.4-16.61-48.05-25h-20.8c-.1,1.55-.2,2.37-.2,3.18,0,51.53-.02,103.06.03,154.59,0,1.42.58,2.83,1.3,4.78,8.55,4.87,17.11,9.73,24.71,14.78h-25.81c-.11,1.81-.23,2.8-.23,3.79,0,65.08-.02,130.16.03,195.24,0,1.57.63,3.14,1.4,5.2,5.53,2.97,11.02,6.02,16.61,8.88,5.85,3,11.79,5.83,17.82,9.58-.09,1.76-.18,3.53-.98,5.18-6.65-3.37-13.3-6.74-20.9-10.19h-13.73c-.14,1.42-.25,2.07-.25,2.72-.01,34.57-.02,69.14.02,103.72,0,1.25.5,2.51,1.16,4.29.66.48,1.28,1.05,2,1.44,15.66,8.47,31.44,16.74,46.96,25.46,6.39,3.59,12.8,1.93,19.81,2.24v-10.77c2.42,1.2,4.33,1.86,5.92,2.98,9.21,6.49,19.3,9.26,30.56,7.98,3.62-.41,7.33-.19,10.99-.04,8.8.35,16.32-1.55,19.7-11.08,11.56,5.16,21.49,14.71,35.48,10.28.19-2.32.39-4.68.65-7.89,10.02,6.03,19.43,11.47,31.2,7.88.14-3.1.28-6.31.45-10.18,6.01,3.18,11.51,5.87,16.8,8.95,5.82,3.39,11.85,1.64,17.97,1.87.2-3.16.36-5.75.57-9.23,10.44,5.61,20.04,12.71,32.64,8.42v-16.09c3.6,1.92,6.67,3.46,9.66,5.15,12.19,6.88,24.12,13.68,39.24,12.16,9.09-.91,17.32-1.45,20.87-11.67,11.92,4.55,21.52,15.15,36.1,10.52,0-4.33-.17-8.96.06-13.57.14-2.9-.87-4.46-3.47-5.8-9.33-4.79-18.45-9.98-27.79-14.73-3.39-1.73-4.82-3.77-3.26-7.94,7.86,4.17,15.59,8.35,23.42,12.33,1.88.95,4.1,1.22,6.57,1.91,1.92-12.74,4.5-24.48,5.26-36.33.89-13.94.13-27.98.28-41.97.03-2.94-.97-4.5-3.56-5.78-6.02-2.95-11.88-6.21-17.81-9.35l.33-.87h25.04c0-7.38-.16-14.02.07-20.65.11-3.09-.91-4.83-3.69-6.21-7.6-3.77-14.78-8.56-22.65-11.58-11.13-4.28-15.67-10.99-14.06-23.21,1.28-9.78.26-19.85.26-30.36h35.9c0-7.02-.21-13.48.08-19.91.16-3.65-1-5.69-4.36-7.33-9.12-4.45-17.97-9.45-27.08-13.93-3.48-1.71-4.74-3.88-4.64-7.77.27-10.49.08-20.99.1-31.49,0-1.77.16-3.54.26-5.82h39.78c0-8.15.13-15.78-.14-23.39-.04-1.16-1.78-2.6-3.06-3.33-5.8-3.27-11.73-6.3-17.59-9.46-2.16-1.16-4.25-2.45-6.37-3.69l.46-1.11h25.42c.12-1.19.27-2,.27-2.8.01-24.16.09-48.32-.14-72.48-.02-1.75-1.79-4.2-3.43-5.11-12.79-7.13-25.77-13.92-38.62-20.94-1.44-.79-3.45-2.31-3.5-3.57-.33-7.42-.16-14.86-.16-23.23,7.78,4.16,14.4,9.19,21.84,11.26,7.4,2.06,15.63,1.14,23.82,1.55,0-8.65.54-16.32-.14-23.88-.84-9.39-5.73-16.27-14.58-20.52-9.44-4.54-18.48-9.91-27.8-14.7-7.04-3.62-14.25-6.89-21.32-10.34,0,0,.02.07-.1-.52Z"/><path class="cls-19" d="M312.31,117.01c4.72,2.27,9.49,4.44,14.15,6.83,4.41,2.27,8.71,4.76,13.47,7.68.42,46.95.42,93.38.42,139.91h22.11v-101.61c5.8,16.04,10.4,32.31,16.08,48.19,5.18,14.46,7.94,29.05,6.77,44.39-.23,3.06-.03,6.15-.03,9.09h21.94c0-2.8,0-5.27,0-7.74.04-50.97.09-101.93.13-152.9,7.4,4,14.81,7.99,22.21,12,1.17.63,2.29,1.35,3.74,2.56-.09,2.99-.84,5.45-.84,7.91-.08,38.48-.28,76.96.05,115.44.13,14.74,9.53,23.02,24.44,23.06,6.16.02,12.33,0,18.49,0,7.95,0,15.9,0,24.01,0v-78.61h-32.61v19.37c3.79.18,7.34.34,10.78.5v38.91c-4.19,0-8.01,0-11.84,0-8.66,0-11.53-2.64-11.54-11.18-.06-33.32-.06-66.64,0-99.95.02-8.07,2.95-10.93,10.73-11.04,9.66-.14,12.65,2.28,12.97,10.87.18,4.95.03,9.91.03,14.97h21.91c-.72-12.96,2.16-26.06-5.61-37.64,7.14,3.43,14.35,6.7,21.39,10.31,9.32,4.79,18.36,10.17,27.8,14.7,8.84,4.25,13.73,11.13,14.58,20.52.68,7.56.14,15.24.14,23.88-8.19-.41-16.42.51-23.82-1.55-7.44-2.07-14.06-7.1-21.84-11.26,0,8.37-.17,15.81.16,23.23.06,1.26,2.06,2.78,3.5,3.57,12.85,7.02,25.83,13.81,38.62,20.94,1.64.91,3.41,3.36,3.43,5.11.22,24.16.15,48.32.14,72.48,0,.81-.15,1.61-.27,2.8h-25.42l-.46,1.11c2.12,1.23,4.21,2.52,6.37,3.69,5.86,3.16,11.79,6.2,17.59,9.46,1.28.72,3.02,2.16,3.06,3.33.27,7.61.14,15.23.14,23.39h-39.78c-.11,2.28-.26,4.05-.26,5.82-.02,10.5.17,21-.1,31.49-.1,3.89,1.16,6.06,4.64,7.77,9.11,4.48,17.96,9.48,27.08,13.93,3.36,1.64,4.52,3.68,4.36,7.33-.29,6.44-.08,12.9-.08,19.91h-35.9c0,10.51,1.02,20.59-.26,30.36-1.6,12.22,2.93,18.93,14.06,23.21,7.87,3.02,15.05,7.81,22.65,11.58,2.78,1.38,3.79,3.12,3.69,6.21-.23,6.63-.07,13.27-.07,20.65h-25.04l-.33.87c5.93,3.14,11.79,6.4,17.81,9.35,2.59,1.27,3.59,2.84,3.56,5.78-.15,13.99.62,28.04-.28,41.97-.76,11.86-3.34,23.6-5.26,36.33-2.46-.69-4.69-.95-6.57-1.91-7.83-3.98-15.55-8.17-23.42-12.33-1.56,4.17-.14,6.22,3.26,7.94,9.34,4.76,18.46,9.94,27.79,14.73,2.6,1.33,3.61,2.9,3.47,5.8-.23,4.61-.06,9.24-.06,13.57-14.57,4.63-24.18-5.97-36.1-10.52-3.56,10.22-11.78,10.76-20.87,11.67-15.12,1.52-27.05-5.28-39.24-12.16-2.99-1.69-6.06-3.24-9.66-5.15v16.09c-12.6,4.29-22.2-2.82-32.64-8.42-.22,3.48-.38,6.07-.57,9.23-6.12-.23-12.15,1.52-17.97-1.87-5.28-3.08-10.79-5.77-16.8-8.95-.17,3.86-.32,7.08-.45,10.18-11.77,3.59-21.18-1.85-31.2-7.88-.27,3.21-.46,5.58-.65,7.89-13.99,4.43-23.92-5.12-35.48-10.28-3.38,9.53-10.9,11.43-19.7,11.08-3.66-.15-7.37-.37-10.99.04-11.26,1.28-21.35-1.49-30.56-7.98-1.59-1.12-3.5-1.78-5.92-2.98v10.77c-7.02-.31-13.42,1.35-19.81-2.24-15.52-8.72-31.29-16.99-46.96-25.46-.72-.39-1.34-.96-1.72-1.75,4.55-.3,8.82-.3,13.47-.3v-110.05c6.65,3.37,13.3,6.74,20.4,10.6.45,33.38.45,66.27.45,99.41,10.28,0,19.91.12,29.53-.03,12.07-.19,16.91-5.16,16.92-17.13.02-23.8.01-47.6,0-71.4,0-1.99-.1-4-.36-5.97-1.03-7.98-5.43-13.84-13.36-14.53-10.68-.93-21.5-.23-32.54-.23-.06.8-.15,2.08-.24,3.36-5.9-2.9-11.84-5.73-17.69-8.73-5.58-2.87-11.08-5.91-16.38-9.2,21.13-.32,42.03-.32,62.95-.32v-25.1h-36.94v-6.55c0-55.43,0-110.86-.03-166.28,0-1.94-.42-3.89-.65-5.83-8.55-4.87-17.11-9.73-25.41-14.93,16.83-.33,33.41-.33,50.02-.33v-20.02h-29.65V110.09c15.7,8.31,31.4,16.61,47.54,25.44.47,2.35.52,4.18.52,6.01,0,34.3-.04,68.59.02,102.89.03,16.38,6.69,25.56,21.15,26.95,10.53,1.01,21.31.71,31.86-.3,11.23-1.07,16.88-7.36,18.9-18.63.52-2.93.85-5.93.86-8.9.06-34.96.01-69.93.06-104.89.01-7.83-1.43-15.17-6.1-21.65M483.69,517.73c-14-7.45-28.01-14.9-42.55-22.64-.73,3.96-1.26,6.86-2.7,9.9-2.16,0-4.33,0-6.49.02-10.96.1-17.34,5.79-17.45,16.77-.26,25.63-.27,51.27.02,76.91.12,10.57,6.21,16.09,16.74,16.38,4.82.13,9.66.09,14.48.03,12.32-.15,17.97-5.71,18.02-18.09.1-24.47.23-48.95-.15-73.41-.07-4.56-2.42-9.09-2.93-13.52,7.88,4.02,15.76,8.03,23.81,12.96-.79,21.15,1,42.06,5.89,63.01,1.61-.11,3.18-.22,3.92-.27,7.75-26.91,6.07-53.79,6-80.49h-15.96c0,4.4,0,8.52-.66,12.44M377.7,507.74c-9.22-4.96-18.45-9.93-28.52-15.35,0,4.89,0,8.66-.88,12.57-3.81.18-2.24,3.14-2.24,4.87-.09,33.46-.07,66.91-.07,100.37v4.61h15.08v-49.32h17.61v49.35h14.58v-109.81c-4.34,0-8.48-.16-12.58.13-.84.06-1.56,1.81-2.99,2.59M262,302.97h-27.56c-.05.33-.11.67-.16,1,8.8,4.72,17.59,9.44,25.84,13.87,1.27-1.7,2.03-2.72,2.86-2.82,0,56.49,0,112.98.03,169.47,0,1.99.15,3.98.5,6.4l.47.16s.47-.17,1.4-.21c7.99.01,15.98.02,24.51.14.15-.3.31-.6.51-1.84v-201.14h-27.54c0,5.18,0,9.99-.85,14.99M478.04,287.01c-3.95-1.96-7.91-3.92-12.12-6-.32,2.55-.56,4.51-1.7,6.58-9.91,0-19.81-.02-30.03-.33-.22.27-.44.54-.78,1.7-.05,2.7-.1,5.4-.85,8.01-3.82-1.91-7.64-3.82-11.47-5.73-.24.47-.47.94-.71,1.41,4.27,2.17,8.54,4.34,12.98,7.41v190.37h67.11v-24.53h-39.63v-67.5h35.31v-24.7h-35.28v-61.72h39.54v-24.56c-7.54,0-14.69,0-22.35-.4M381.77,294l-7.07-3.27c.48.63.95,1.25,1.43,1.88-3.5,3-7,5.99-10.63,9.1,4.62,2.27,9.76,4.8,14.97,8.2-.08,1.16-.09,2.34-.25,3.49-3.97,27.99-7.94,55.97-11.96,83.95-2,13.96-4.09,27.9-6.14,41.85-3.64-21.08-6.68-42.13-9.67-63.19-4.04-28.48-8.02-56.97-12.15-85.44-.16-1.08-1.6-2.8-2.47-2.82-8.11-.22-16.23-.13-25.01-.13,10.98,68,21.86,135.36,32.76,202.85h32.51c10.93-67.68,21.8-135.01,32.7-202.48h-26.89c-.52,2.3-.95,4.22-2.12,6.01M319.91,508.96c-3.84-1.32-7.6-3.1-11.56-3.82-3.55-.65-7.31-.14-10.97-.14-12.82.02-18.83,6.08-18.83,19.07,0,28.66,0,57.31.01,85.97,0,1.6,0,3.2,0,4.69h15.11v-39.36h16.84v39.49h14.16c.24-.55.48-.85.48-1.14.04-30.49.24-60.98-.14-91.46-.05-4.28-2.98-8.52-5.1-13.29M485.68,597.89v16.87h13.39v-17.56c-4.48,0-8.62,0-13.39.7Z"/><path class="cls-17" d="M312.35,117.01c4.63,6.48,6.08,13.82,6.07,21.65-.05,34.96,0,69.93-.06,104.89,0,2.97-.33,5.98-.86,8.9-2.02,11.27-7.67,17.56-18.9,18.63-10.55,1.01-21.33,1.3-31.86.3-14.46-1.38-21.12-10.57-21.15-26.95-.06-34.3-.02-68.59-.02-102.89,0-1.83-.05-3.66-.17-5.94.14-1.59.42-2.72.61-3.87,2.6-15.26,10.07-21.65,25.45-21.72,7.33-.04,14.67-.03,22,0,6.34.03,12.17,1.62,17.57,6.13.75.55,1.06.74,1.38.93,0,0-.02-.07-.06-.07Z"/><path class="cls-12" d="M407.04,110.59c.27,51.23.23,102.2.18,153.17,0,2.47,0,4.94,0,7.74h-21.94c0-2.94-.2-6.03.03-9.09,1.17-15.33-1.6-29.92-6.77-44.39-5.68-15.88-10.28-32.15-16.08-48.19v101.61h-22.11c0-46.54,0-92.96-.07-139.84-.07-7.33-.07-14.21-.07-21.57,7.54,0,14.42,0,21.79.42,7.81,25.13,15.13,49.83,22.45,74.53.21-.06.41-.13.62-.19v-74.46c7.55,0,14.61,0,21.98.27Z"/><path class="cls-7" d="M494.32,118.02c7.73,11.59,4.85,24.69,5.57,37.65h-21.91c0-5.06.15-10.02-.03-14.97-.32-8.59-3.31-11.01-12.97-10.87-7.78.11-10.71,2.97-10.73,11.04-.06,33.32-.06,66.64,0,99.95.02,8.54,2.88,11.17,11.54,11.18,3.82,0,7.65,0,11.84,0v-38.91c-3.45-.16-6.99-.33-10.78-.5v-19.37h32.61v78.61c-8.1,0-16.06,0-24.01,0-6.16,0-12.33.02-18.49,0-14.91-.05-24.31-8.33-24.44-23.06-.34-38.48-.13-76.96-.05-115.44,0-2.46.75-4.92,1.19-7.8,4.23-11.29,12.51-15.8,23.76-15.51,7.94.21,15.95.03,23.77,1.16,3.97.57,7.58,3.64,11.79,5.96.77.56,1.09.75,1.41.94,0,0-.02-.07-.06-.06Z"/><path class="cls-22" d="M202.07,287.24c.7,1.85,1.13,3.8,1.13,5.74.04,55.43.03,110.86.03,166.28v6.55h36.94v25.1c-20.91,0-41.81,0-63.16.08-.78-1.49-1.41-3.07-1.41-4.64-.05-65.08-.04-130.16-.03-195.24,0-.99.12-1.98.23-3.79,8.63,0,17.22,0,26.29-.09Z"/><path class="cls-23" d="M197.03,110.05c.48,47.13.48,94.22.48,141.82h29.65v20.02c-16.61,0-33.19,0-50.23.07-.77-1.35-1.35-2.76-1.35-4.18-.05-51.53-.04-103.06-.03-154.59,0-.81.1-1.62.2-3.18,6.99,0,13.89,0,21.27.04Z"/><path class="cls-8" d="M211.35,509.6c.03-1.7.12-2.99.18-3.79,11.03,0,21.85-.7,32.54.23,7.93.69,12.33,6.54,13.36,14.53.26,1.97.36,3.98.36,5.97.02,23.8.03,47.6,0,71.4,0,11.97-4.85,16.95-16.92,17.13-9.63.15-19.26.03-29.53.03,0-33.15,0-66.04-.09-99.36,0-2.19.09-3.96.11-6.14M226.39,548.5v52.68c2.62,0,4.76,0,6.89,0,8.92-.01,10.01-1.1,10.01-10.05,0-20.32.01-40.64-.02-60.96,0-1.98.34-4.38-.61-5.85-1.36-2.11-3.52-4.46-5.78-5.07-3.21-.86-6.81-.22-10.49-.22v29.47Z"/><path class="cls-23" d="M190.01,505.05c.47,36.55.47,73.07.47,110.08-4.65,0-8.92,0-13.67.04-.74-1.22-1.24-2.47-1.24-3.72-.04-34.57-.03-69.14-.02-103.72,0-.65.12-1.3.25-2.72,4.59,0,9.16,0,14.2.04Z"/><path class="cls-15" d="M384.75,121.93c.31,21.03.31,41.94.31,62.86-.21.06-.41.13-.62.19-7.32-24.7-14.64-49.4-21.98-74.48,7.31,3.52,14.64,7.42,22.29,11.43Z"/><path class="cls-19" d="M494.32,117.78c-.26.11-.59-.08-1.04-.54.24-.1.61.07,1.04.54Z"/><path class="cls-19" d="M312.31,116.81c-.22.07-.53-.12-.95-.58.21-.07.53.12.95.58Z"/><path class="cls-7" d="M382.51,294.12c.43-1.92.86-3.84,1.38-6.14h26.89c-10.9,67.47-21.77,134.8-32.7,202.48h-32.51c-10.9-67.48-21.78-134.84-32.76-202.85,8.78,0,16.9-.09,25.01.13.88.02,2.32,1.74,2.47,2.82,4.13,28.47,8.1,56.96,12.15,85.44,2.99,21.06,6.04,42.11,9.67,63.19,2.05-13.95,4.14-27.9,6.14-41.85,4.01-27.98,7.99-55.97,11.96-83.95.16-1.15.17-2.32.42-4.27.74-5.52,1.31-10.26,1.88-15Z"/><path class="cls-13" d="M434.5,287.56c9.91,0,19.81.02,30.64.1,5.09-.03,9.25-.13,13.42-.24h21.83v24.56h-39.54v61.72h35.28v24.7h-35.31v67.5h39.63v24.53h-67.11c0-63.49,0-126.93-.01-191.17-.04-1.27-.06-1.73-.08-2.2.05-2.7.1-5.4.47-8.62.47-.64.62-.76.77-.87Z"/><path class="cls-14" d="M289.34,490.86c-7.99-.01-15.98-.02-24.6-.15-.9-.31-1.19-.35-1.49-.25-.08-1.99-.24-3.98-.24-5.98-.02-56.49-.02-112.98.1-170.37,0-4.38-.13-7.86-.26-11.33v-14.79h27.54c0,67.05,0,134.1-.2,201.73-.45.74-.66.92-.85,1.14Z"/><path class="cls-14" d="M459.89,509.96c1.3,4.55,3.66,9.08,3.72,13.64.37,24.47.24,48.94.15,73.41-.05,12.38-5.7,17.94-18.02,18.09-4.83.06-9.66.1-14.48-.03-10.53-.29-16.62-5.81-16.74-16.38-.29-25.63-.28-51.27-.02-76.91.11-10.98,6.49-16.67,17.45-16.77,2.16-.02,4.33-.01,7.4-.03,7.89-.06,15-.62,20.54,4.98Z"/><path class="cls-22" d="M320.17,509.22c1.86,4.52,4.78,8.76,4.84,13.03.38,30.48.18,60.97.14,91.46,0,.29-.24.59-.48,1.14h-14.16v-39.49h-16.84v39.36h-15.11c0-1.49,0-3.09,0-4.69,0-28.66-.02-57.31-.01-85.97,0-12.99,6.01-19.05,18.83-19.07,3.67,0,7.42-.51,10.97.14,3.95.72,7.71,2.5,11.82,4.08M303.62,519c-4.4-.14-9.62-.62-9.88,5.45-.49,11.23-.14,22.49-.14,33.87h16.66c0-11.42.12-22.54-.07-33.66-.06-3.33-2.01-5.58-6.57-5.67Z"/><path class="cls-4" d="M378.37,507.92c.77-.97,1.49-2.72,2.33-2.78,4.1-.29,8.24-.13,12.58-.13v109.81h-14.58v-49.35h-17.61v49.32h-15.08v-4.61c0-33.46-.02-66.91.07-100.37,0-1.73-1.57-4.69,3.16-4.86,4.46.06,8.01.11,11.56.62.01,15.67.01,30.88.01,45.96h17.44c0-12.97,0-25.59.13-38.64.09-1.95.05-3.47,0-4.98Z"/><path class="cls-10" d="M484.35,517.93v-12.64h15.96c.08,26.7,1.75,53.58-6,80.49-.74.05-2.31.16-3.92.27-4.89-20.95-6.69-41.86-5.9-63.88-.05-1.99-.1-3.11-.15-4.23Z"/><path class="cls-21" d="M485.99,597.54c4.46-.35,8.6-.35,13.08-.35v17.56h-13.39c0-5.65,0-11.26.31-17.21Z"/><path class="cls-18" d="M262.43,302.88c.55,3.38.68,6.86.65,10.78-.92,1.46-1.68,2.48-2.95,4.19-8.25-4.43-17.04-9.15-25.84-13.87.05-.33.11-.67.16-1,9.19,0,18.37,0,27.98-.1Z"/><path class="cls-9" d="M484.02,517.83c.38,1.22.42,2.34.39,3.88-7.96-3.6-15.84-7.62-24.11-11.7-5.94-5.65-13.05-5.09-20.48-5.11.07-2.96.6-5.86,1.33-9.82,14.54,7.74,28.55,15.19,42.88,22.74Z"/><path class="cls-20" d="M360.77,505.12c-3.55-.05-7.09-.1-11.11-.23-.48-3.85-.48-7.62-.48-12.51,10.08,5.42,19.3,10.39,28.86,15.44.37,1.61.42,3.12-.04,5.01-6.07-2.32-11.65-5.02-17.22-7.71Z"/><path class="cls-5" d="M382.14,294.06c-.2,4.8-.78,9.54-1.55,14.63-5.34-2.18-10.48-4.71-15.1-6.98,3.63-3.11,7.13-6.11,10.63-9.1-.48-.63-.95-1.25-1.43-1.88,2.36,1.09,4.71,2.18,7.44,3.33Z"/><path class="cls-16" d="M478.3,287.21c-3.91.3-8.07.4-12.71.39-.23-2.08.02-4.04.33-6.59,4.21,2.09,8.16,4.04,12.38,6.21Z"/><path class="cls-6" d="M432.91,297c.37.51.4.98.35,1.79-4.34-1.82-8.61-3.99-12.88-6.15.24-.47.47-.94.71-1.41,3.82,1.91,7.64,3.82,11.82,5.77Z"/><path class="cls-18" d="M289.61,490.92c-.09-.28.13-.46.55-.72.02.18-.13.48-.55.72Z"/><path class="cls-18" d="M263.37,490.67c.18-.31.46-.27.9.06.17.14-.3.31-.3.31,0,0-.47-.16-.6-.37Z"/><path class="cls-16" d="M434.35,287.41c0,.26-.14.38-.55.57-.04-.19.18-.45.55-.57Z"/><path class="cls-3" d="M226.39,548v-28.97c3.67,0,7.28-.64,10.49.22,2.26.6,4.42,2.95,5.78,5.07.95,1.47.6,3.87.61,5.85.03,20.32.02,40.64.02,60.96,0,8.95-1.09,10.03-10.01,10.05-2.13,0-4.26,0-6.89,0v-53.18Z"/><path class="cls-1" d="M304.05,519c4.13.08,6.08,2.33,6.14,5.66.19,11.12.07,22.24.07,33.66h-16.66c0-11.38-.35-22.64.14-33.87.26-6.08,5.48-5.59,10.31-5.45Z"/><path class="cls-2" d="M360.78,505.58c5.56,2.24,11.14,4.93,17.08,7.69.37,12.68.37,25.3.37,38.27h-17.44c0-15.08,0-30.29-.01-45.96Z"/></svg>